<svg width="256" height="64" viewBox="0 0 256 64" fill="none" xmlns="http://www.w3.org/2000/svg">
<g clip-path="url(#clip0_1_2)">
<path d="M52.094 39.3296C52.7365 40.6906 53.379 42.0516 53.9412 43.4927C55.1459 46.2947 56.1096 49.1768 56.5915 52.2191C56.9128 54.0604 56.9931 55.9018 56.4309 57.7431C55.8687 59.6645 54.4231 60.7053 52.4152 60.7053C50.568 60.7053 48.9618 60.0648 47.3555 59.2642C45.9902 58.5437 44.6249 57.6631 43.2596 56.7824C42.6974 56.3821 42.2155 56.3021 41.4927 56.5422C39.3242 57.3428 36.9148 55.1812 37.2361 52.9396C37.3967 51.9789 37.3164 51.8188 36.433 51.1783C36.3527 51.3384 36.192 51.4985 36.1117 51.6587C34.1842 54.4607 32.0961 57.1827 29.6867 59.5845C28.1607 61.0255 26.5545 62.4666 24.627 63.3472C23.6632 63.7475 22.6994 64.0677 21.6554 63.9877C20.0491 63.9076 19.005 62.9469 18.3625 61.666C17.6397 60.305 17.3988 58.7839 17.2382 57.2628C16.9169 53.0197 17.5594 48.9367 18.5232 44.8537C18.6035 44.5334 18.6838 44.2132 18.7641 43.8129C18.6035 43.8129 18.4429 43.7328 18.2822 43.7328C14.5075 43.5727 10.7328 43.0924 7.03841 42.0516C5.35184 41.5713 3.74558 40.9308 2.29995 39.89C1.89838 39.5698 1.49682 39.2496 1.17557 38.9293C-0.189753 37.4082 -0.35038 35.727 0.613376 33.9657C1.49682 32.4446 2.78183 31.3238 4.22746 30.3631C5.59278 29.4824 7.03842 28.6818 8.48405 27.8812C8.8053 27.7211 8.88561 27.561 8.96593 27.1607C9.04624 25.7997 9.68874 24.839 10.9737 24.2786C12.2588 23.7182 13.4635 23.8783 14.5075 24.759C14.9091 25.0792 15.2303 25.1593 15.7122 24.9991C15.9532 24.839 16.2744 24.759 16.5957 24.759C16.9169 24.6789 16.9972 24.5188 16.8366 24.1986C15.5516 21.6367 14.4272 18.9947 13.5438 16.1927C12.8209 13.9511 12.2588 11.6294 12.1784 9.2276C12.1784 8.18683 12.2588 7.14607 12.58 6.18537C13.2225 4.02379 15.0697 2.90297 17.3988 3.2232C19.8082 3.54343 21.8963 4.66425 23.9845 5.86513C26.956 7.70648 29.526 9.94812 32.0961 12.2698C32.2567 12.4299 32.4173 12.5901 32.5779 12.7502C33.3008 11.7895 33.9433 10.8288 34.6661 9.86806C36.5133 7.38625 38.5211 5.06455 40.8502 3.06308C42.2155 1.94226 43.5808 0.9015 45.2674 0.34109C45.9902 0.100914 46.713 -0.0592024 47.4358 0.0208562C49.524 0.100915 50.568 1.54197 51.2106 3.30326C51.7727 4.90443 51.9334 6.5056 51.9334 8.18683C51.9334 9.46777 51.8531 10.7487 51.7727 11.9496C51.7727 12.1097 51.9334 12.3499 52.094 12.4299C52.8971 12.9103 53.379 13.6308 53.6199 14.5115C54.1018 16.2728 52.9774 18.1141 51.2106 18.5945C50.809 18.6745 50.568 18.8346 50.568 19.2349C50.568 19.395 50.4877 19.5552 50.4074 19.7153C50.2468 20.1956 50.3271 20.1956 50.809 20.1956C54.0215 20.3557 57.1537 20.676 60.2859 21.3965C62.4544 21.8769 64.5425 22.5974 66.47 23.7983C67.5141 24.4387 68.3975 25.2393 68.8794 26.3601C69.3613 27.561 69.281 28.6818 68.6385 29.8027C67.8353 31.2437 66.711 32.3645 65.4259 33.3252C62.8559 35.2466 59.9647 36.6076 56.9128 37.7285C55.3065 38.2088 53.7003 38.7692 52.094 39.3296ZM13.6241 7.8666C13.7044 9.22759 13.9453 10.5085 14.3469 11.7895C15.4713 15.7924 17.2382 19.5552 19.1657 23.3179C19.3263 23.6381 19.5672 23.6381 19.8885 23.5581C22.1373 22.9977 24.4663 22.5173 26.7151 21.9569C26.956 21.8769 27.197 21.7167 27.2773 21.4766C28.482 19.315 29.6867 17.1534 30.9717 14.9918C31.1323 14.6716 31.1323 14.5115 30.8914 14.2713C29.2851 12.7502 27.7592 11.2291 26.1529 9.78801C24.2254 8.10678 22.2979 6.58566 19.9688 5.38478C18.8444 4.82437 17.8004 4.34402 16.5153 4.26396C15.3107 4.1839 14.4272 4.74431 14.0256 5.78508C13.7847 6.5056 13.7044 7.14607 13.6241 7.8666ZM50.9696 22.4373C50.7287 22.4373 50.3271 22.4373 50.0059 22.4373C49.6846 22.4373 49.6043 22.5974 49.4437 22.8376C48.6405 25.2393 47.9177 27.6411 47.1146 30.0428C47.0343 30.3631 47.0343 30.6032 47.1949 30.9235C48.3193 32.8449 49.524 34.7663 50.6484 36.6877C50.8893 37.088 51.0499 37.168 51.4515 37.0079C53.8609 36.2073 56.2703 35.4868 58.6797 34.6062C61.089 33.7255 63.4181 32.6047 65.5063 31.0836C66.3094 30.5232 66.9519 29.8827 67.5141 29.0821C68.1566 27.9613 68.0763 26.9205 67.1928 26.0399C67.0322 25.8798 66.7913 25.7197 66.6306 25.5595C65.5866 24.839 64.3819 24.3587 63.1772 24.0384C59.0812 22.8376 55.0656 22.5974 50.9696 22.4373ZM19.005 57.0226C19.005 57.5029 19.0854 58.3035 19.1657 59.1842C19.3263 60.0648 19.5672 60.9455 20.1294 61.666C20.6916 62.3865 21.4144 62.6267 22.2176 62.5466C23.2616 62.4666 24.1451 61.9062 24.9482 61.3457C26.6348 60.1449 28.0804 58.5437 29.3654 57.0226C31.2929 54.7009 32.9795 52.2191 34.6661 49.6572C34.8267 49.417 34.8267 49.2569 34.6661 49.0968C33.0598 47.2554 31.3732 45.4141 29.767 43.6528C29.6064 43.4927 29.3654 43.4126 29.2048 43.4126C26.7151 43.4927 24.3057 43.5727 21.816 43.6528C21.4144 43.6528 21.1735 43.7328 21.0932 44.1331C20.7719 45.4141 20.4507 46.695 20.1294 47.976C19.4869 50.8581 19.0854 53.7402 19.005 57.0226ZM55.3868 55.9818C55.3065 54.3806 55.0656 53.0197 54.664 51.6587C53.5396 47.6557 51.7727 43.893 49.8452 40.2903C49.6846 40.0502 49.524 40.0502 49.283 40.0502C46.954 40.6106 44.6249 41.0909 42.2958 41.6513C42.1352 41.7314 41.8942 41.8114 41.8139 41.9716C40.5289 44.2132 39.3242 46.4548 38.0392 48.6164C37.8786 48.8566 37.9589 49.0167 38.1195 49.1768C38.3605 49.417 38.6014 49.6572 38.8424 49.8974C39.003 50.1375 39.2439 50.1375 39.4849 50.0575C39.8864 49.8974 40.288 49.8173 40.6896 49.7372C42.4564 49.5771 44.7052 51.4985 43.9824 53.9003C43.8218 54.3806 43.9824 54.7009 44.3036 54.9411C45.3477 55.6616 46.3115 56.3821 47.2752 57.1026C48.6405 58.0633 50.1665 58.7839 51.7727 59.1842C53.5396 59.5845 54.8246 58.7839 55.1459 57.0226C55.3868 56.6223 55.3868 56.222 55.3868 55.9818ZM17.8807 41.171C18.2822 41.171 18.7641 41.171 19.1657 41.171C19.4066 41.171 19.5672 41.0909 19.5672 40.8507C20.3704 38.3689 21.1735 35.8871 21.9766 33.4053C22.0569 33.2452 21.9766 33.005 21.8963 32.8449C20.6916 30.7634 19.4869 28.7619 18.2822 26.6804C18.1216 26.4402 18.0413 26.4402 17.8004 26.4402C17.3185 26.6003 16.8366 26.6804 16.3547 26.8405C15.9532 26.9205 15.6319 27.1607 15.6319 27.6411C15.5516 28.4417 15.15 29.0821 14.5878 29.5625C13.2225 30.6833 11.4556 30.6833 10.0903 29.4824C9.92968 29.3223 9.76906 29.1622 9.4478 29.3223C7.43998 30.2029 5.51247 31.0836 3.74558 32.3645C2.86214 33.005 2.13932 33.6455 1.57713 34.6062C0.934628 35.727 1.09525 36.7678 1.9787 37.6484C2.38026 38.0487 2.86214 38.3689 3.2637 38.6091C4.54871 39.3296 5.99435 39.7299 7.52029 40.0502C10.9738 40.8507 14.4272 41.0109 17.8807 41.171ZM45.3477 19.9554C45.3477 20.0355 45.3477 20.0355 45.3477 19.9554C46.0705 20.0355 46.713 19.9554 47.3555 20.0355C47.5965 20.0355 47.7571 19.9554 47.7571 19.7153C47.8374 19.2349 47.998 18.8346 48.1587 18.3543C48.239 18.034 48.1587 17.8739 47.9177 17.6337C45.9099 16.0326 46.5524 12.6701 49.1224 11.9496C49.4437 11.8695 49.524 11.7094 49.6043 11.3892C49.8452 9.2276 50.0862 7.06601 49.8452 4.90443C49.7649 3.86367 49.524 2.90297 48.9618 2.02232C48.3996 1.22174 47.5965 0.821442 46.6327 0.981559C45.8296 1.14168 45.1068 1.46191 44.4643 1.94226C43.0989 2.82291 41.9746 3.94373 40.9305 5.06455C38.3605 7.78654 36.2723 10.8288 34.2645 13.9511C34.1039 14.1912 34.1842 14.3513 34.3448 14.5915C35.8708 16.2728 37.3164 17.8739 38.762 19.5552C39.1636 20.0355 39.5652 20.2757 40.2077 20.1956C41.9746 20.1156 43.6611 20.0355 45.3477 19.9554ZM30.8914 40.6906C31.9354 40.5305 32.9795 40.4504 33.9433 40.3704C35.9511 40.1302 37.9589 39.81 39.9667 39.5698C40.288 39.5698 40.4486 39.4097 40.5289 39.1695C41.7336 36.5276 42.858 33.8856 44.0627 31.1637C44.143 31.0035 44.0627 30.6833 43.9824 30.5232C43.5808 29.8827 43.1793 29.2422 42.6974 28.6818C41.4927 27.0807 40.288 25.3994 39.1636 23.7983C38.762 23.1578 38.1999 22.9176 37.3967 22.9977C36.0314 23.1578 34.5858 23.3179 33.2204 23.478C31.9354 23.6381 30.7307 23.8783 29.4457 24.0384C29.1245 24.1185 28.8835 24.1185 28.7229 24.4387C27.5182 27.0807 26.3135 29.8027 25.1891 32.4446C25.1088 32.6047 25.1088 32.9249 25.2695 33.005C27.0363 35.4868 28.8835 37.8886 30.6504 40.3704C30.5701 40.6106 30.8111 40.6906 30.8914 40.6906ZM23.8238 35.727C23.1813 37.5683 22.6191 39.3296 21.9766 41.251C23.9041 41.171 25.7513 41.0909 27.6788 41.0109C26.3135 39.1695 25.1088 37.4883 23.8238 35.727ZM45.2674 27.8812C45.9099 26.0399 46.4721 24.2786 47.1146 22.4373C45.1871 22.5173 43.3399 22.5974 41.4124 22.6774C42.6974 24.4387 43.9824 26.12 45.2674 27.8812ZM36.192 47.1754C37.0755 45.4941 37.9589 43.893 38.9227 42.2918C36.7542 42.612 34.7464 42.8522 32.6583 43.0924C33.7826 44.4534 34.9873 45.8144 36.192 47.1754ZM32.8189 16.4329C31.9354 18.1141 31.052 19.7153 30.0882 21.3164C32.2567 21.0763 34.2645 20.756 36.3527 20.5159C35.2283 19.1549 34.1039 17.7939 32.8189 16.4329ZM25.5907 24.759C25.5104 24.759 25.4301 24.759 25.3498 24.759C23.9041 25.0792 22.4585 25.3994 21.0129 25.7197C20.6916 25.7997 20.6113 25.8798 20.7719 26.2C21.4948 27.4009 22.2979 28.6818 23.0207 29.8827C23.101 29.9628 23.1813 30.0428 23.2616 30.1229C24.0648 28.3616 24.7876 26.6003 25.5907 24.759ZM45.8296 33.4053C45.0265 35.2466 44.2233 37.088 43.4202 38.9293C45.1068 38.529 46.7933 38.2088 48.4799 37.8085C47.5965 36.2874 46.713 34.8463 45.8296 33.4053Z" fill="#3841E0"/>
<path d="M28.9639 31.8041C28.9639 28.7619 31.4536 26.2801 34.5055 26.2801C37.6377 26.2801 40.1274 28.7619 40.1274 31.8842C40.1274 35.0064 37.718 37.4082 34.5858 37.4082C31.1323 37.4082 28.9639 34.7663 28.9639 31.8041Z" fill="#3841E0"/>
<path d="M89.4334 28.9988V13.8697H83.027V50.2098H89.4334V28.9988ZM137.787 39.1863C136.821 41.5178 135.499 43.4437 133.821 44.9642C132.092 46.586 130.059 47.8532 127.72 48.7655C125.381 49.6778 122.762 50.134 119.864 50.134H111.399V44.3561H119.788C121.72 44.3561 123.474 44.052 125.05 43.4438C126.576 42.8356 127.898 41.974 129.016 40.8589C130.135 39.7438 130.999 38.4261 131.609 36.9056C132.22 35.3852 132.525 33.7126 132.525 31.888C132.525 30.1141 132.22 28.4669 131.609 26.9464C130.999 25.3752 130.135 24.0828 129.016 23.0691C127.999 22.0047 126.677 21.1432 125.051 20.4842C123.424 19.876 121.669 19.5719 119.788 19.5719H111.399V13.794H119.864C122.559 13.794 125.152 14.2755 127.644 15.2385C129.983 16.1001 132.042 17.3925 133.821 19.1158C135.55 20.687 136.872 22.613 137.787 24.8937C138.753 27.2252 139.236 29.6073 139.236 32.0401C139.236 34.6757 138.753 37.0577 137.787 39.1863ZM153.726 13.8697H146.633L160.819 35.8408V50.2098H167.759V35.689L153.726 13.8697ZM182.021 13.8697H175.386L166.997 25.806L170.734 30.8237L182.021 13.8697ZM206.579 28.9988V13.8697H200.172V50.2098H206.579V28.9988ZM228.849 13.9456H256V19.7235H228.849V13.9456ZM228.849 44.3557H255.923V50.1336H228.849V44.3557ZM228.849 28.9988H253.33V34.7007H228.849V28.9988Z" fill="#3841E0"/>
</g>
<defs>
<clipPath id="clip0_1_2">
<rect width="256" height="64" fill="white"/>
</clipPath>
</defs>
</svg>
